<?xml version="1.0" encoding="utf-8"?>
<!-- Generator: Adobe Illustrator 25.0.0, SVG Export Plug-In . SVG Version: 6.00 Build 0)  -->
<svg version="1.1" id="Layer_1" xmlns="http://www.w3.org/2000/svg" xmlns:xlink="http://www.w3.org/1999/xlink" x="0px" y="0px"
	 viewBox="0 0 209 259" style="enable-background:new 0 0 209 259;" xml:space="preserve">
<style type="text/css">
	.st0{fill:#2E3C90;}
	.st1{fill:#1F1F20;}
	.st2{fill:#C52180;}
	.st3{fill:#EE2626;}
	.st4{fill:#15A5CA;}
	.st5{fill:#F79521;}
	.st6{fill:#663191;}
	.st7{fill:#F4EB1C;}
	.st8{fill:#92C841;}
	.st9{fill:#1CAF4C;}
	.st10{fill:#1968B2;}
	.st11{fill:#3ABB9A;}
	.st12{fill:#F16B24;}
	.st13{fill:#FFC813;}
	.st14{fill:#9656A2;}
	.st15{fill:#A4D064;}
	.st16{fill:#802E91;}
	.st17{fill:#C5225D;}
</style>
<g>
	<path class="st0" d="M48.4,151.3c-5,0.1-10,0.2-14.9,0.2c-6.5,0-8.6-2-8.6-8.7c0-15.4,0-30.8,0.1-46.3c6.8-3.8,14.2-3,21.5-3l0,0
		c0.4,0,0.7,0.1,1.1,0.1l0-0.1c6.3,0,12.6,0.1,18.9,0.1c0.1,9.9,3.3,18.8,9.3,26.6c-0.9,0.4-2,0.6-2.6,1.3
		c-7.7,7.9-15.5,15.7-23,23.8C48.9,146.8,49,149.3,48.4,151.3z"/>
	<path class="st1" d="M154.1,214.9c1.9,8,3.6,15.2,5.5,23.7c1.2-2,2.5-3.3,2.6-4.7c0.3-4,1.1-8.4-0.1-11.9
		c-1.7-4.6,1.5-8.3,0.2-12.8c2-0.3,3.6-0.6,5.7-0.9c0,3,0,5.5,0,8.3c1.8,0.5,3.2,0.8,5.9,1.5c-2.6,0.8-3.9,1.3-5.6,1.8
		c0,2.7,0,5.7,0,8.7c0,3.2-0.1,6.3,0.2,9.5c0.1,1.3,1.3,3.5,1.8,3.5c1.4-0.1,3.2-0.9,4-2c0.9-1.2,0.8-3.1,1-4.7
		c0.6-3.7,0.7-7.6,1.9-11.1c2.1-6,6.1-7.5,12.3-6.2c2.3,0.5,4.9-0.1,8-0.3c0,6.3,0,12.3,0,18.4c0,3.4-0.5,7.2,5.1,6.4
		c-2.9,6-5.8,6-10,0.7c-6.6,5.5-9.5,5.3-16-0.9c-6.5,7.1-11.1,6.5-14.8-2.4c-5.7,4.6-11.1,11.4-18,5.2c-4.1,0.6-7.7,2.2-9.6,1
		c-2.3-1.5-3.7-5.2-4.2-8.2c-0.7-3.5,0.4-7.3-0.1-10.9c-0.3-1.8-2.3-3.4-3.5-5.1c-1.6,1.5-4.1,2.7-4.5,4.5
		c-0.8,3.3-0.5,6.9-0.6,10.4c-0.1,3.1,0,6.3,0,9.7c-2.1,0.1-3.7,0.2-5.6,0.3c0-9.7,0-19.1,0-29.4c2.2,0.6,4.4,1.1,5.5,1.4
		c3.9-0.3,7.9-1.9,10.2-0.5c2.4,1.4,4,5.4,4.6,8.5c0.7,3.7-0.3,7.6-0.1,11.4c0.1,1.4,1.7,2.7,2.7,4c0.9-1.2,2.1-2.3,2.6-3.7
		c2.4-6.8,4.3-13.8,6.9-20.6C148.7,216.2,151.7,215.9,154.1,214.9z M191.4,230.1c0.1,0,0.1,0,0.2,0c0-1.7,0.3-3.4-0.1-4.9
		c-0.4-1.7-1.6-4.5-2.3-4.5c-1.8,0.1-4.8,1.2-5.1,2.5c-1.1,4.9-1.7,9.9-1.7,14.9c0,1.3,3,3.8,4.2,3.6c1.8-0.3,4-2.3,4.7-4.1
		C192,235.3,191.4,232.6,191.4,230.1z M150.1,224.5c-0.4,0-0.8,0-1.3,0c-1.1,5.1-2.2,10.3-3.5,16.4c1,0.2,3.4,1.4,4.7,0.7
		c1.4-0.8,2.5-3.4,2.3-5.1C152.1,232.4,150.9,228.4,150.1,224.5z"/>
	<path class="st2" d="M47,41.8c-0.1-5.5-0.4-10.9-0.2-16.4c0.1-4.2,2.3-6.9,6.8-6.9c15.9,0,31.8,0.2,47.8,0.3
		c0.1,0.2,0.2,0.5,0.3,0.7c-7,6.8-14.1,13.5-21.1,20.4C75.5,45,70.6,50.4,65.5,55.6c-4.6-4.1-9.3-8.2-13.9-12.3
		C50.1,42.8,48.5,42.3,47,41.8z"/>
	<path class="st3" d="M101.7,19.5c-0.1-0.3-0.2-0.5-0.3-0.7c4-4,7.9-8.1,12-12c2.8-2.7,6-3.2,8.9-0.4c11,10.8,21.9,21.8,32.8,32.8
		c0.3,0.3,0.4,0.9,0.5,1.4c-15.1,0-30.2,0-45.4,0.1c-1.7,0-3.5,0.6-5.2,0.9c-0.1-5.2,0.1-10.5-0.4-15.7
		C104.4,23.6,102.7,21.6,101.7,19.5z"/>
	<path class="st4" d="M104,172.7c-4.1,4.3-8,9-12.6,12.7c-1.8,1.4-6.6,2-7.9,0.7c-11.7-11.2-22.9-22.9-34.2-34.5
		c1.8-0.1,3.6-0.2,5.5-0.2c15.1-0.1,30.2-0.2,45.3-0.2c0.1,5.1-0.1,10.2,0.5,15.2C100.9,168.7,102.9,170.7,104,172.7L104,172.7z"/>
	<path class="st5" d="M156.5,40.7c5.6-0.1,11.3-0.2,16.9-0.2c4.2,0,6.8,2.5,6.8,6.4c0.1,15.2,0,30.5-0.1,45.7c0,0.3-0.3,0.6-0.5,0.8
		c-1.4-1.2-2.8-2.3-4.1-3.6c-10.7-10.5-21.3-21-32-31.5c3.3-3.4,6.9-6.7,9.8-10.4C154.9,46,155.4,43.2,156.5,40.7z"/>
	<path class="st6" d="M46.5,93.5c-7.3,0-14.7-0.8-21.5,3c-4-3.9-8.5-7.5-12-11.9c-1.4-1.7-1.9-6.2-0.7-7.4
		C23.4,65.7,35,54.6,46.5,43.4C46.5,60.1,46.5,76.8,46.5,93.5z"/>
	<path class="st7" d="M179.7,94.4c4.1,4.1,8.3,8.1,12.4,12.2c2.8,2.9,3.3,6.3,0.4,9.3c-10.7,10.9-21.6,21.6-32.5,32.3
		c-0.3,0.3-0.9,0.3-1.4,0.4c-0.1-0.4-0.2-0.7-0.2-1.1c0-16.3,0-32.6,0.1-48.9c4.3,0,8.7,0.4,12.9-0.3
		C174.2,97.8,176.9,95.7,179.7,94.4z"/>
	<path class="st8" d="M158.3,147.5c0.1,0.4,0.2,0.7,0.2,1.1c0,0.3-0.2,0.6-0.4,0.8c-0.3,0-0.6,0-1,0.1c-2.5-1.1-5.2-1.7-7.4-3.3
		c-3.5-2.6-6.6-5.8-9.9-8.8c-4.6-4.8-9.1-9.6-13.7-14.4c8.1-8.1,12.3-17.9,12.2-29.4c4.1,0,8.2-0.1,12.2,0c3.3,0.1,6.1,1.1,6.9,4.8
		c0,14.9-0.1,29.9,0,44.8C157.6,144.7,158,146.1,158.3,147.5z"/>
	<path class="st9" d="M140,137.5c3.3,2.9,6.4,6.1,9.9,8.8c2.1,1.6,4.9,2.2,7.4,3.3c0.2,6.3,0.4,12.7,0.6,19c-1.3,1.5-2.7,3-4,4.5
		c-14.3-0.1-28.7-0.2-43-0.3c-1.1,0-2.2,0.5-3.3,0.7c-0.6-0.1-1.3-0.1-1.9-0.2c1-1.4,1.9-3.1,3.1-4.3
		C119.1,158.4,129.5,147.9,140,137.5z"/>
	<path class="st10" d="M100.1,151.2c-15.1,0.1-30.2,0.1-45.3,0.2c-1.8,0-3.6,0.1-5.5,0.2c-0.3,0-0.7-0.1-0.9-0.3
		c0.5-2,0.5-4.6,1.7-5.9c7.5-8.1,15.3-16,23-23.8c0.6-0.6,1.7-0.8,2.6-1.3c7.1,6.2,15,10.6,24.6,11.4
		C100.3,138.2,100.2,144.7,100.1,151.2z"/>
	<path class="st11" d="M100.1,151.2c0.1-6.5,0.1-13,0.2-19.5c9.7,0.3,18.2-2.9,25.9-8.6c4.6,4.8,9.1,9.6,13.7,14.4
		c-10.4,10.5-20.9,20.9-31.3,31.4c-1.2,1.2-2.1,2.9-3.1,4.3c-0.5-0.2-1-0.4-1.5-0.5c0,0,0,0.1,0,0.1c-1.2-2.1-3.2-4.1-3.5-6.3
		C100,161.4,100.3,156.3,100.1,151.2z"/>
	<path class="st12" d="M156.5,40.7c-1,2.5-1.6,5.3-3.2,7.3c-2.9,3.7-6.5,6.9-9.8,10.4c-4.7,4.5-9.4,9-14.1,13.6
		c-6.8-6.8-15-10.8-24.6-11.8c0.1-6.2,0.1-12.5,0.2-18.7c1.7-0.3,3.5-0.9,5.2-0.9c15.1-0.1,30.2-0.1,45.4-0.1
		C155.9,40.5,156.2,40.5,156.5,40.7z"/>
	<path class="st13" d="M129.4,72c4.7-4.5,9.4-9,14.1-13.6c10.7,10.5,21.3,21,32,31.5c1.3,1.3,2.7,2.4,4.1,3.6
		c0.1,0.3,0.2,0.5,0.1,0.8c-2.8,1.4-5.5,3.4-8.4,3.9c-4.2,0.7-8.6,0.2-12.9,0.3c-0.3,0-0.5-0.1-0.8-0.1c-0.8-3.8-3.6-4.8-6.9-4.8
		c-4.1-0.1-8.2,0-12.2,0C137.3,85.6,134.3,78.4,129.4,72z"/>
	<path class="st1" d="M25,207.9c-5.2,9.1-6.4,18.1-4.5,27.6c0.7,3.2,2.1,6.9,5.7,6.2c2.5-0.4,6.1-3.3,6.5-5.6
		c1.1-7.3,1.8-14.9,1-22.1c-0.8-7.3-6.4-10.3-13.5-9c-7.7,1.4-12,6.6-11.3,13.9c0.1,1.4,0.5,2.8,0.8,4.6c-4.9-0.9-6.3-3.9-5.7-8
		c0.2-1.4,0.8-2.9,1.6-4.2c3.8-6.5,14-10,23.1-8c7.3,1.6,12.6,7.3,12.9,15.7c0.2,6.2-0.3,12.6-1.9,18.5c-1.9,6.7-7.6,9.6-14.3,9.1
		c-6-0.5-10.3-4.4-11.8-11.1c-1.7-7.5-1.3-14.9,1.8-22C16.8,209.4,19.7,207,25,207.9z"/>
	<path class="st1" d="M59.9,217.5c2.3,0,3.9,0,5.9,0c0,6.3-0.2,12.5,0.1,18.6c0.1,1.9,1.7,3.8,2.6,5.7c1.3-1.9,3.7-3.7,3.8-5.7
		c0.5-6.1,0.2-12.3,0.2-18.8c2.7,0.4,6-1.8,6.3,2.7c1.9-1,3.9-2.4,6-3c1-0.3,2.9,0.8,3.6,1.8c0.6,0.8,0.3,2.7-0.4,3.5
		c-0.5,0.6-2.3,0.5-3.4,0.3c-3.9-0.8-6.1,0.8-6.1,4.7c-0.1,6.1,0,12.3,0,19.5c-2.4-0.7-4.2-1.2-6-1.6c-0.6-0.1-1.4-0.3-1.8,0
		c-4.3,2.9-7.4,1.2-9.8-3c-2.5,3.6-5.5,5.4-9.6,4c-4.5-1.5-5.1-5.2-5.1-9.3c0-6.3,0-12.6,0-19.3c1.9,0,3.6,0,5.8,0
		c0,6.1-0.1,12,0.1,18c0.1,2.5-0.6,6.1,3.2,6.2c4,0.1,4.5-3.4,4.5-6.5C60,229.5,59.9,223.7,59.9,217.5z"/>
	<path class="st1" d="M103.7,246.4c0-13.6,0-26.5,0-39.6c-7.7,1.8-9.9,7.1-6.9,15.9c-5.7-0.2-8-4.5-5.6-10.3
		c2.7-6.5,11.1-10.7,18.8-9.1c0,14,0,28.1,0,42.8C108.1,246.2,106.2,246.3,103.7,246.4z"/>
	<path class="st14" d="M46.5,93.5c0-16.7,0-33.4,0-50.1c0.2-0.5,0.4-1.1,0.5-1.6c1.5,0.5,3.1,1,4.6,1.5c-3.2-0.3-4.2,1.2-4.2,4.4
		c0.2,15.3,0.1,30.6,0.1,45.8c0,0,0,0.1,0,0.1C47.2,93.6,46.8,93.6,46.5,93.5C46.5,93.5,46.5,93.5,46.5,93.5z"/>
	<path class="st11" d="M107.6,173.4c1.1-0.2,2.2-0.7,3.3-0.7c14.3,0.1,28.7,0.2,43,0.3c-2.9,0.2-5.9,0.7-8.8,0.7
		C132.5,173.7,120,173.5,107.6,173.4z"/>
	<path class="st15" d="M157.8,168.5c-0.2-6.3-0.4-12.7-0.6-19c0.3-0.1,0.6-0.1,1-0.1C158.1,155.8,158,162.1,157.8,168.5z"/>
	<polygon class="st9" points="104.1,172.8 104.1,172.7 104,172.7 	"/>
	<path class="st16" d="M47.5,93.5c0-15.3,0.1-30.6-0.1-45.8c0-3.2,1-4.7,4.2-4.4c4.6,4.1,9.3,8.2,13.9,12.3
		c4.4,4.4,8.8,8.8,13.3,13.2C71.7,75.7,68,84.1,66.4,93.7C60.1,93.6,53.8,93.6,47.5,93.5z"/>
	<path class="st6" d="M46.5,93.5c0.4,0,0.7,0.1,1.1,0.1C47.2,93.6,46.8,93.6,46.5,93.5z"/>
	<path class="st17" d="M104.8,60.2c-9.6,0-18.3,2.8-25.9,8.7C74.4,64.4,70,60,65.5,55.6c5-5.3,9.9-10.6,15.1-15.8
		c6.9-6.9,14-13.6,21.1-20.4c1,2.1,2.7,4.1,2.9,6.2c0.5,5.2,0.3,10.5,0.4,15.7C104.9,47.7,104.8,53.9,104.8,60.2z"/>
	<path class="st15" d="M157.6,98.5c0.3,0,0.5,0.1,0.8,0.1c0,16.3,0,32.6-0.1,48.9c-0.3-1.4-0.8-2.8-0.8-4.3
		C157.5,128.3,157.6,113.4,157.6,98.5z"/>
	<path class="st8" d="M133.5,93.6c0.9,10.5-2.3,19.3-10.8,25.9c-0.8-1-1.5-2-2.3-2.9c0.7-1.2,1.3-2.4,2-3.6c0.3-0.3,0.7-0.6,1-0.9
		c0,0-0.2,0.2-0.2,0.2c0.1-0.3,0.2-0.5,0.5-0.7c1.5-2.8,3-5.6,4.4-8.4c0.2-3.2,0.4-6.4,0.5-9.6C130.3,93.6,131.9,93.6,133.5,93.6z"
		/>
	<path class="st12" d="M104.8,64.8c8.5,0.7,15.8,3.7,21.1,10.6c-1,1.3-2,2.6-3,3.9c-2.6-2-5.1-4-7.7-5.9c-3.5-1.6-6.9-3.2-10.4-4.8
		C104.8,67.3,104.8,66.1,104.8,64.8z"/>
	<path class="st10" d="M100.2,127c-8.4-0.6-15.6-3.6-20.7-10.6c0.7-1.4,1.4-2.9,2.1-4.3c1.8,1.8,3.5,3.5,5.3,5.3
		c4.5,2,9,3.9,13.4,5.9C100.2,124.5,100.2,125.8,100.2,127z"/>
	<path class="st17" d="M104.8,64.8c0,1.2,0,2.5,0,3.7c-3.1,0.6-6.2,1.2-9.2,1.8c-1.7,0.8-3.4,1.5-5.1,2.3c-1.9,0.8-3.8,1.7-5.7,2.5
		c-0.8-0.9-1.6-1.8-2.4-2.7C88.6,66.2,96.3,64.3,104.8,64.8z"/>
	<path class="st11" d="M100.2,127c0-1.2,0.1-2.5,0.1-3.7c7.4-0.3,14.2-2.3,20.2-6.7c0.8,1,1.5,2,2.3,2.9
		C116.4,125.6,108.8,127.9,100.2,127z"/>
	<path class="st0" d="M81.5,112.1c-0.7,1.4-1.4,2.9-2.1,4.3c-6.5-6.2-8.8-13.9-7.8-22.8c1.2,0,2.4,0,3.6,0c0.2,2.3-0.2,4.8,0.6,6.8
		c1.5,3.7,3.6,7.1,5.5,10.6C81.4,111.4,81.5,111.8,81.5,112.1z"/>
	<path class="st13" d="M122.9,79.3c1-1.3,2-2.6,3-3.9c5.2,5,7.7,11,7.6,18.2c-1.6,0-3.2,0-4.8,0C126.8,88.8,124.8,84.1,122.9,79.3z"
		/>
	<path class="st16" d="M75.2,93.7c-1.2,0-2.4,0-3.6,0c0.2-8.8,3.8-15.9,10.8-21.2c0.8,0.9,1.6,1.8,2.4,2.7
		C79.6,80.3,76.5,86.5,75.2,93.7z"/>
	<path class="st1" d="M122.9,79.3c1.9,4.8,3.9,9.5,5.8,14.3c-0.2,3.2-0.4,6.4-0.5,9.5c-1.5,2.8-3,5.6-4.4,8.4
		c-0.2,0.2-0.4,0.4-0.5,0.7c0,0,0.2-0.2,0.2-0.2c-0.3,0.3-0.7,0.6-1,0.9c-0.8-0.8-1.4-1.7-2.3-2.3c-1.7-1.1-3.4-2.9-5.1-2.9
		c-1.5,0-3.9,1.7-4.3,3.1c-0.5,1.7,0.6,3.9,1.3,5.8c0.2,0.7,1.3,1.1,2.3,1.9c-5.7,2.8-10.9,3.8-16.4,2.4c-3.7-1-7.4-2.4-11.1-3.5
		c-1.8-1.8-3.5-3.5-5.3-5.3c-0.1-0.3-0.1-0.7-0.2-1c-4.2-8.4-6.5-16.8-1.4-26.6c0.5,1.9,0.7,3,1.1,4.1c1.7,5.2,6.1,8.2,11.3,7.8
		c5.1-0.4,8.9-3.9,9.9-9c1.2-5.9-2.9-11.2-9.6-12.9c-0.8-0.2-1.4-1.3-2.2-1.9c1.7-0.8,3.4-1.5,5.1-2.3c6.5,1,13.1,2,19.6,3
		C117.8,75.4,120.3,77.3,122.9,79.3z M107,99.1c-1.3,2.2-2.7,3.5-2.6,4.7c0,1,2,2.7,2.7,2.5c1.2-0.3,2.9-1.8,3-2.9
		C110.2,102.4,108.6,101.2,107,99.1z"/>
</g>
</svg>
